<svg width="22" height="20" viewBox="0 0 22 20" fill="none" xmlns="http://www.w3.org/2000/svg">
<g id="&#240;&#159;&#166;&#134; icon &#34;menu 1&#34;">
<path id="Vector" d="M15.2527 0H6.24512C2.33251 0 0 2.12146 0 5.68005V13.8628C0 17.4312 2.33251 19.5527 6.24512 19.5527H15.242C19.1546 19.5527 21.4871 17.4312 21.4871 13.8726V5.68005C21.4978 2.12146 19.1653 0 15.2527 0ZM16.1234 14.9089H5.37446C4.93375 14.9089 4.56829 14.5765 4.56829 14.1757C4.56829 13.7749 4.93375 13.4425 5.37446 13.4425H16.1234C16.5641 13.4425 16.9295 13.7749 16.9295 14.1757C16.9295 14.5765 16.5641 14.9089 16.1234 14.9089ZM16.1234 10.5096H5.37446C4.93375 10.5096 4.56829 10.1772 4.56829 9.77634C4.56829 9.37551 4.93375 9.04311 5.37446 9.04311H16.1234C16.5641 9.04311 16.9295 9.37551 16.9295 9.77634C16.9295 10.1772 16.5641 10.5096 16.1234 10.5096ZM16.1234 6.11021H5.37446C4.93375 6.11021 4.56829 5.77781 4.56829 5.37699C4.56829 4.97616 4.93375 4.64376 5.37446 4.64376H16.1234C16.5641 4.64376 16.9295 4.97616 16.9295 5.37699C16.9295 5.77781 16.5641 6.11021 16.1234 6.11021Z" fill="#2107C4"/>
</g>
</svg>
